<mxfile host="app.diagrams.net" modified="2023-08-12T17:06:09.356Z" agent="Mozilla/5.0 (Windows NT 10.0; Win64; x64) AppleWebKit/537.36 (KHTML, like Gecko) Chrome/114.0.0.0 Safari/537.36 OPR/100.0.0.0" etag="pf7-AYna-JvaS6vUYaM4" version="21.6.8" type="github">
  <diagram id="C5RBs43oDa-KdzZeNtuy" name="Page-1">
    <mxGraphModel dx="839" dy="485" grid="1" gridSize="10" guides="1" tooltips="1" connect="1" arrows="1" fold="1" page="1" pageScale="1" pageWidth="827" pageHeight="1169" math="0" shadow="0">
      <root>
        <mxCell id="WIyWlLk6GJQsqaUBKTNV-0" />
        <mxCell id="WIyWlLk6GJQsqaUBKTNV-1" parent="WIyWlLk6GJQsqaUBKTNV-0" />
        <mxCell id="n3E9GC3IoPZPiVtgqx0S-9" value="" style="edgeStyle=orthogonalEdgeStyle;rounded=0;orthogonalLoop=1;jettySize=auto;html=1;" edge="1" parent="WIyWlLk6GJQsqaUBKTNV-1" source="n3E9GC3IoPZPiVtgqx0S-0" target="n3E9GC3IoPZPiVtgqx0S-1">
          <mxGeometry relative="1" as="geometry" />
        </mxCell>
        <mxCell id="n3E9GC3IoPZPiVtgqx0S-0" value="Inicio" style="ellipse;whiteSpace=wrap;html=1;" vertex="1" parent="WIyWlLk6GJQsqaUBKTNV-1">
          <mxGeometry x="215" y="60" width="90" height="60" as="geometry" />
        </mxCell>
        <mxCell id="n3E9GC3IoPZPiVtgqx0S-10" value="" style="edgeStyle=orthogonalEdgeStyle;rounded=0;orthogonalLoop=1;jettySize=auto;html=1;" edge="1" parent="WIyWlLk6GJQsqaUBKTNV-1" source="n3E9GC3IoPZPiVtgqx0S-1" target="n3E9GC3IoPZPiVtgqx0S-3">
          <mxGeometry relative="1" as="geometry" />
        </mxCell>
        <mxCell id="n3E9GC3IoPZPiVtgqx0S-1" value="n" style="shape=parallelogram;perimeter=parallelogramPerimeter;whiteSpace=wrap;html=1;fixedSize=1;" vertex="1" parent="WIyWlLk6GJQsqaUBKTNV-1">
          <mxGeometry x="207.5" y="160" width="105" height="50" as="geometry" />
        </mxCell>
        <mxCell id="n3E9GC3IoPZPiVtgqx0S-11" value="" style="edgeStyle=orthogonalEdgeStyle;rounded=0;orthogonalLoop=1;jettySize=auto;html=1;" edge="1" parent="WIyWlLk6GJQsqaUBKTNV-1" source="n3E9GC3IoPZPiVtgqx0S-3" target="n3E9GC3IoPZPiVtgqx0S-4">
          <mxGeometry relative="1" as="geometry" />
        </mxCell>
        <mxCell id="n3E9GC3IoPZPiVtgqx0S-12" value="Sim" style="edgeLabel;html=1;align=center;verticalAlign=middle;resizable=0;points=[];" vertex="1" connectable="0" parent="n3E9GC3IoPZPiVtgqx0S-11">
          <mxGeometry x="-0.046" y="2" relative="1" as="geometry">
            <mxPoint as="offset" />
          </mxGeometry>
        </mxCell>
        <mxCell id="n3E9GC3IoPZPiVtgqx0S-14" value="" style="edgeStyle=orthogonalEdgeStyle;rounded=0;orthogonalLoop=1;jettySize=auto;html=1;" edge="1" parent="WIyWlLk6GJQsqaUBKTNV-1" source="n3E9GC3IoPZPiVtgqx0S-3" target="n3E9GC3IoPZPiVtgqx0S-6">
          <mxGeometry relative="1" as="geometry" />
        </mxCell>
        <mxCell id="n3E9GC3IoPZPiVtgqx0S-15" value="Não" style="edgeLabel;html=1;align=center;verticalAlign=middle;resizable=0;points=[];" vertex="1" connectable="0" parent="n3E9GC3IoPZPiVtgqx0S-14">
          <mxGeometry x="-0.5459" y="-2" relative="1" as="geometry">
            <mxPoint as="offset" />
          </mxGeometry>
        </mxCell>
        <mxCell id="n3E9GC3IoPZPiVtgqx0S-3" value="n&amp;lt;0" style="rhombus;whiteSpace=wrap;html=1;" vertex="1" parent="WIyWlLk6GJQsqaUBKTNV-1">
          <mxGeometry x="220" y="260" width="80" height="80" as="geometry" />
        </mxCell>
        <mxCell id="n3E9GC3IoPZPiVtgqx0S-13" value="" style="edgeStyle=orthogonalEdgeStyle;rounded=0;orthogonalLoop=1;jettySize=auto;html=1;" edge="1" parent="WIyWlLk6GJQsqaUBKTNV-1" source="n3E9GC3IoPZPiVtgqx0S-4" target="n3E9GC3IoPZPiVtgqx0S-8">
          <mxGeometry relative="1" as="geometry" />
        </mxCell>
        <mxCell id="n3E9GC3IoPZPiVtgqx0S-4" value="&quot;n não é um número natural&quot;" style="shape=document;whiteSpace=wrap;html=1;boundedLbl=1;" vertex="1" parent="WIyWlLk6GJQsqaUBKTNV-1">
          <mxGeometry x="355" y="270" width="100" height="60" as="geometry" />
        </mxCell>
        <mxCell id="n3E9GC3IoPZPiVtgqx0S-19" value="" style="edgeStyle=orthogonalEdgeStyle;rounded=0;orthogonalLoop=1;jettySize=auto;html=1;" edge="1" parent="WIyWlLk6GJQsqaUBKTNV-1" source="n3E9GC3IoPZPiVtgqx0S-6" target="n3E9GC3IoPZPiVtgqx0S-17">
          <mxGeometry relative="1" as="geometry" />
        </mxCell>
        <mxCell id="n3E9GC3IoPZPiVtgqx0S-6" value="f = n!" style="rounded=0;whiteSpace=wrap;html=1;" vertex="1" parent="WIyWlLk6GJQsqaUBKTNV-1">
          <mxGeometry x="200" y="410" width="120" height="60" as="geometry" />
        </mxCell>
        <mxCell id="n3E9GC3IoPZPiVtgqx0S-8" value="Fim" style="ellipse;whiteSpace=wrap;html=1;" vertex="1" parent="WIyWlLk6GJQsqaUBKTNV-1">
          <mxGeometry x="505" y="270" width="90" height="60" as="geometry" />
        </mxCell>
        <mxCell id="n3E9GC3IoPZPiVtgqx0S-20" value="" style="edgeStyle=orthogonalEdgeStyle;rounded=0;orthogonalLoop=1;jettySize=auto;html=1;" edge="1" parent="WIyWlLk6GJQsqaUBKTNV-1" source="n3E9GC3IoPZPiVtgqx0S-17" target="n3E9GC3IoPZPiVtgqx0S-18">
          <mxGeometry relative="1" as="geometry" />
        </mxCell>
        <mxCell id="n3E9GC3IoPZPiVtgqx0S-17" value="n! = f" style="shape=document;whiteSpace=wrap;html=1;boundedLbl=1;" vertex="1" parent="WIyWlLk6GJQsqaUBKTNV-1">
          <mxGeometry x="210" y="510" width="100" height="60" as="geometry" />
        </mxCell>
        <mxCell id="n3E9GC3IoPZPiVtgqx0S-18" value="Fim" style="ellipse;whiteSpace=wrap;html=1;" vertex="1" parent="WIyWlLk6GJQsqaUBKTNV-1">
          <mxGeometry x="215" y="620" width="90" height="60" as="geometry" />
        </mxCell>
      </root>
    </mxGraphModel>
  </diagram>
</mxfile>
